PathFileType	4	(X/Y/Z)	Patient4_TMGait_0pt7_02_left_43.trc.trc
DataRate	CameraRate	NumFrames	NumMarkers	Units	OrigDataRate	OrigDataStartFrame	OrigNumFrames
92.105263157895	92.105263157895	4	33	mm	92.105263157895	106	       141
Frame#	Time	Sacral			L.Shoulder			Chest			R.Shoulder			Neck			R.ASIS			L.ASIS			R.Thigh.Superior			R.Thigh.Lateral			R.Thigh.Inferior			R.Patella			L.Thigh.Superior			L.Thigh.Lateral			L.Thigh.Inferior			L.Patella			L.Shank.Superior			L.Shank.Lateral			L.Shank.Inferior			R.Shank.Superior			R.Shank.Lateral			R.Shank.Inferior			R.Heel			R.Midfoot.Superior			R.Midfoot.Lateral			R.Toe			L.Heel			L.Midfoot.Lateral			L.Midfoot.Superior			L.Toe			L.Elbow			L.Wrist			R.Elbow			R.Wrist			
		X1	Y1	Z1	X2	Y2	Z2	X3	Y3	Z3	X4	Y4	Z4	X5	Y5	Z5	X6	Y6	Z6	X7	Y7	Z7	X8	Y8	Z8	X9	Y9	Z9	X10	Y10	Z10	X11	Y11	Z11	X12	Y12	Z12	X13	Y13	Z13	X14	Y14	Z14	X15	Y15	Z15	X16	Y16	Z16	X17	Y17	Z17	X18	Y18	Z18	X19	Y19	Z19	X20	Y20	Z20	X21	Y21	Z21	X22	Y22	Z22	X23	Y23	Z23	X24	Y24	Z24	X25	Y25	Z25	X26	Y26	Z26	X27	Y27	Z27	X28	Y28	Z28	X29	Y29	Z29	X30	Y30	Z30	X31	Y31	Z31	X32	Y32	Z32	X33	Y33	Z33	

106	50.450000000000	722.589999513367	1012.994117551916	518.324694579824	910.560994394441	1421.549060340818	307.659853919696	1024.658903643872	1353.717930114835	463.186270938135	960.261245156133	1441.381185197952	638.811009370779	926.807060692299	1488.307232758345	462.675413158068	952.212146643732	942.816378748977	627.017378521695	924.972413766261	952.778414614422	354.211254676931	981.018497966832	736.968614962609	596.908299896877	895.336198209957	631.994572134891	657.471016397673	965.514953479932	576.431866864295	573.939034319166	960.198003412687	487.519672006662	578.700807301094	1023.495626608123	802.030410048566	394.236864649469	1008.763115809316	676.149466758638	305.834125562563	1117.618100994324	629.458105482916	376.227425791852	1147.840636949828	542.007619960434	363.963905983513	1090.017178757757	466.296989554935	352.906815280458	954.197221318801	404.563007871343	309.185792431563	965.785610191249	272.198876300428	355.777115172143	927.164434972945	401.079426261993	586.210078924449	851.348804462789	300.884646013348	647.716609900110	887.018039159030	204.620495821195	582.196161925075	744.690121984415	43.362791081780	551.132631767975	915.926445703173	96.327742367166	588.275933320983	827.201659936212	36.870665349649	626.637635140827	1035.735750519627	42.274865946788	618.261688275102	791.522137150427	183.816501817910	402.446007378839	846.253628153362	145.528174924865	316.485119028165	951.626059887650	161.824517692387	329.768174742427	1035.714810034198	57.208962871965	291.790402594858	860.633448842547	1063.451869988894	224.643913275219	912.237336119101	807.169298408636	219.336216616764	1013.230001423469	1108.824440916530	787.162089390984	1199.210313946111	941.491685466552	712.241382510399	
107	50.460857142857	721.915675069558	1013.176248483480	518.496329855431	909.532856889620	1421.130985278256	307.112414263162	1024.253100023798	1353.337059288494	462.184511919663	960.859749702056	1441.302216725880	638.078007290200	926.234946097996	1488.229371862836	461.530568716698	951.731060061871	942.496109420934	626.471011768331	923.870890852597	952.697486764440	353.599940898485	978.270616928593	736.035795099878	596.324916685958	891.830669880227	631.861423075116	657.453277265770	961.053623322654	575.526717775072	573.834460394864	954.685363613498	486.861096747134	578.690555619083	1022.906051076799	803.760297843271	394.050076016154	1009.657841327080	677.719886506102	305.345906153775	1118.981782800529	632.348227575820	375.464864878916	1150.623163239021	545.926938341041	363.210286005156	1095.667930490468	468.920183467121	352.146256025438	962.864965515147	401.403618246449	307.844408399643	980.040499475601	269.555550548904	354.688525740055	921.424603180197	400.658783218165	586.285105918370	845.139113606170	300.810178491730	647.809982274140	880.132507054153	204.377727340298	582.246662877714	737.112847424959	43.450289518490	551.266806068623	908.322772102136	96.245830258205	588.325380384952	819.564259323601	36.895752501848	626.774266609388	1028.098395047577	42.081293608806	618.358309810404	809.630505534593	172.935250768967	400.392461737996	866.716004161476	137.590116347733	314.736991756951	971.076640629082	159.017189006224	328.785842700750	1060.549567505814	58.725594658685	291.187005985564	854.256984185380	1063.642926798970	224.866387651805	890.756002492259	804.945964327170	219.492507534052	1023.551870869313	1111.734216739259	787.274675104465	1217.632801030545	957.222965666884	706.844511485869	
108	50.471714285714	721.307422240968	1013.311420016346	518.457886430198	908.694443562914	1420.737384805588	306.476196720050	1023.946614085926	1352.883048345723	461.114211962578	961.507539598341	1441.128595861370	637.265664317295	925.786588529125	1488.102254001182	460.249635722355	951.229405402508	942.126839371230	625.848824487375	922.918745718983	952.516728866367	352.881202676842	975.632253168478	735.090752818181	595.824046917598	888.269103613770	631.711768356097	657.350177524673	956.648370666193	574.600160692464	573.762212248819	949.226825331197	486.200251537362	578.654794623994	1022.181421667092	805.032718763958	393.629225739174	1010.013967907945	678.758357176273	304.807159010326	1119.791036315737	634.561455889683	374.525404090218	1152.676560656111	549.270688955418	362.463688662439	1100.706982556083	471.147501058770	351.438038312785	971.461891744986	397.799551528799	306.194132510131	994.206996387529	266.777017145151	353.492324186934	915.723058399184	400.238542373266	586.322552719025	838.935429173184	300.749125316374	647.857534765354	873.254121210772	204.144433261929	582.272276749053	729.529337979497	43.553663619706	551.397610048910	900.728995671449	96.180692983713	588.379832561684	811.921799230764	36.919066289192	626.887326503111	1020.458507268112	41.895312902993	618.459557826742	828.125552155447	161.916846314151	397.811016636744	887.646873899383	129.680862365265	312.665181272709	990.620904361414	156.275820633776	327.760735222784	1085.395279134834	60.672033869982	290.903627117446	847.181694834142	1064.215397501466	224.608779835219	870.504518866797	804.224071588825	219.870875467218	1033.559387319966	1114.693964895105	787.005414434534	1234.809475917942	973.356448028687	701.414647461147	
109	50.482571428571	720.790292883365	1013.413683221268	518.209430183273	908.045146175704	1420.374284653626	305.749422077299	1023.744226736207	1352.373883075526	459.975388617832	962.210463395434	1440.888547598575	636.366631148096	925.495679450040	1487.931007941584	458.911765749669	950.724420141356	941.732640004518	625.154343042758	922.124520987022	952.246003172123	352.060075012385	973.103794370074	734.139714068552	595.410137493540	884.640063764978	631.557876614105	657.158962110438	952.289574613215	573.656787776855	573.725106880651	943.811251891725	485.542034512125	578.588129944889	1021.328066531451	805.844252780183	392.993571641419	1009.837482058523	679.251691753749	304.224513811442	1120.030890171997	636.056647948645	373.440521681872	1153.988861658115	551.997962819620	361.751061708561	1105.090230184733	472.957686634239	350.803968636895	979.963509288010	393.796567923048	304.250544005136	1008.206288383638	263.912104432587	352.209245030105	910.043113277302	399.820111134615	586.307200989996	832.725538621429	300.710503647948	647.854587303520	866.379678326059	203.927994593020	582.269711919448	721.935444703394	43.673980349128	551.517077844593	893.143119334353	96.132002687947	588.433811600981	804.275719767003	36.942399858343	626.973052323279	1012.817366868892	41.720708942940	618.564151693330	846.934126276017	150.853933163819	394.738103059674	908.959681521094	121.911733279093	310.308171250668	1010.156215896344	153.679667468292	326.710638565534	1110.104665520584	63.143980962338	290.963767623096	839.472475060550	1065.203520459615	223.916838494665	851.592748825531	804.718659076400	220.471548329640	1043.189247165786	1117.672856804435	786.334283228951	1250.713773401197	989.761583757962	696.004303115543	
